<svg width="96" height="96" viewBox="0 0 96 96" fill="none" xmlns="http://www.w3.org/2000/svg">
  <rect width="96" height="96" rx="28" fill="#071822"/>
  <rect x="8" y="8" width="80" height="80" rx="24" fill="url(#paint0_linear)" fill-opacity="0.16" stroke="url(#paint1_linear)" stroke-width="2"/>
  <path d="M48 22L68 30V46C68 60.4 59.2 73.2 48 78C36.8 73.2 28 60.4 28 46V30L48 22Z" fill="#092332" stroke="#3DD6D0" stroke-width="2.5"/>
  <path d="M48 35C42.6 35 38 39.6 38 45V47.5C38 52.9 42.6 57.5 48 57.5C53.4 57.5 58 52.9 58 47.5V45C58 39.6 53.4 35 48 35Z" fill="#0C3245"/>
  <path d="M41 51L45.6 55.2L55 43.8" stroke="#7EF7D4" stroke-width="3.2" stroke-linecap="round" stroke-linejoin="round"/>
  <defs>
    <linearGradient id="paint0_linear" x1="16" y1="12" x2="82" y2="84" gradientUnits="userSpaceOnUse">
      <stop stop-color="#3DD6D0"/>
      <stop offset="1" stop-color="#1EA6FF"/>
    </linearGradient>
    <linearGradient id="paint1_linear" x1="16" y1="12" x2="82" y2="84" gradientUnits="userSpaceOnUse">
      <stop stop-color="#49E2D6"/>
      <stop offset="1" stop-color="#1EA6FF"/>
    </linearGradient>
  </defs>
</svg>
